<svg width="334" height="334" viewBox="0 0 334 334" fill="none" xmlns="http://www.w3.org/2000/svg">
<path d="M166.951 0C209.414 0 250.282 16.1806 281.236 45.2487L166.951 166.95V0Z" fill="#4285F4"/>
<path d="M281.236 45.2485C301.736 64.4986 317.04 88.6149 325.73 115.359L166.951 166.95L281.236 45.2485Z" fill="#EA4335"/>
<path d="M325.73 115.36C354.223 203.051 306.233 297.236 218.542 325.729L166.951 166.95L325.73 115.36Z" fill="#FBBC04"/>
<path d="M95.8672 15.8891C118.104 5.42548 142.376 0 166.951 0V166.95L95.8672 15.8891Z" fill="#F07B72"/>
<path d="M2.95801 135.667C12.972 83.1718 47.5117 38.6435 95.867 15.8892L166.951 166.95L2.95801 135.667Z" fill="#7BAAF7"/>
<path d="M31.8855 265.081C4.78963 227.787 -5.67992 180.948 2.95803 135.667L166.951 166.95L31.8855 265.081Z" fill="#46BDC6"/>
<path d="M146.026 332.583C100.291 326.806 58.9806 302.375 31.8848 265.081L166.95 166.95L146.026 332.583Z" fill="#FF6D01"/>
<path d="M218.541 325.729C195.169 333.323 170.408 335.664 146.026 332.583L166.951 166.95L218.541 325.729Z" fill="#34A853"/>
<path d="M136.58 52.179C135.779 52.179 135.059 52.0256 134.42 51.7188C133.785 51.4077 133.278 50.9815 132.898 50.4403C132.519 49.8991 132.317 49.2812 132.291 48.5866H134.209C134.256 49.1491 134.505 49.6115 134.957 49.9737C135.408 50.3359 135.95 50.517 136.58 50.517C137.083 50.517 137.528 50.402 137.916 50.1719C138.308 49.9375 138.615 49.6158 138.837 49.2067C139.063 48.7976 139.175 48.331 139.175 47.8068C139.175 47.2741 139.06 46.799 138.83 46.3814C138.6 45.9638 138.283 45.6357 137.878 45.397C137.477 45.1584 137.017 45.0369 136.497 45.0327C136.101 45.0327 135.702 45.1009 135.302 45.2372C134.901 45.3736 134.577 45.5526 134.33 45.7741L132.521 45.5057L133.256 38.9091H140.454V40.603H134.899L134.484 44.2656H134.56C134.816 44.0185 135.155 43.8118 135.577 43.6456C136.003 43.4794 136.459 43.3963 136.945 43.3963C137.741 43.3963 138.451 43.5859 139.073 43.9652C139.7 44.3445 140.192 44.8622 140.55 45.5185C140.912 46.1705 141.091 46.9205 141.087 47.7685C141.091 48.6165 140.899 49.3729 140.511 50.0376C140.128 50.7024 139.595 51.2266 138.913 51.6101C138.236 51.9893 137.458 52.179 136.58 52.179ZM150.254 49.5455V48.8551C150.254 48.3608 150.357 47.9091 150.561 47.5C150.77 47.0866 151.073 46.7564 151.469 46.5092C151.869 46.2578 152.353 46.1321 152.92 46.1321C153.499 46.1321 153.985 46.2557 154.377 46.5028C154.769 46.75 155.066 47.0803 155.266 47.4936C155.47 47.907 155.573 48.3608 155.573 48.8551V49.5455C155.573 50.0398 155.47 50.4936 155.266 50.907C155.061 51.3161 154.761 51.6463 154.365 51.8977C153.972 52.1449 153.491 52.2685 152.92 52.2685C152.345 52.2685 151.859 52.1449 151.463 51.8977C151.066 51.6463 150.766 51.3161 150.561 50.907C150.357 50.4936 150.254 50.0398 150.254 49.5455ZM151.744 48.8551V49.5455C151.744 49.9119 151.831 50.2443 152.006 50.5426C152.181 50.8409 152.485 50.9901 152.92 50.9901C153.35 50.9901 153.651 50.8409 153.821 50.5426C153.992 50.2443 154.077 49.9119 154.077 49.5455V48.8551C154.077 48.4886 153.994 48.1562 153.828 47.858C153.666 47.5597 153.363 47.4105 152.92 47.4105C152.494 47.4105 152.191 47.5597 152.012 47.858C151.833 48.1562 151.744 48.4886 151.744 48.8551ZM143.671 42.054V41.3636C143.671 40.8693 143.773 40.4155 143.977 40.0021C144.186 39.5888 144.489 39.2585 144.885 39.0114C145.286 38.7642 145.769 38.6406 146.336 38.6406C146.916 38.6406 147.401 38.7642 147.794 39.0114C148.186 39.2585 148.482 39.5888 148.682 40.0021C148.882 40.4155 148.982 40.8693 148.982 41.3636V42.054C148.982 42.5483 148.88 43.0021 148.676 43.4155C148.475 43.8246 148.177 44.1548 147.781 44.4062C147.389 44.6534 146.907 44.777 146.336 44.777C145.757 44.777 145.269 44.6534 144.872 44.4062C144.48 44.1548 144.182 43.8246 143.977 43.4155C143.773 43.0021 143.671 42.5483 143.671 42.054ZM145.166 41.3636V42.054C145.166 42.4205 145.252 42.7528 145.422 43.0511C145.597 43.3494 145.901 43.4986 146.336 43.4986C146.762 43.4986 147.061 43.3494 147.231 43.0511C147.406 42.7528 147.493 42.4205 147.493 42.054V41.3636C147.493 40.9972 147.41 40.6648 147.244 40.3665C147.078 40.0682 146.775 39.919 146.336 39.919C145.91 39.919 145.607 40.0682 145.428 40.3665C145.254 40.6648 145.166 40.9972 145.166 41.3636ZM144.278 52L153.278 38.9091H154.806L145.806 52H144.278Z" fill="white"/>
<path d="M203.226 49.9091V63H201.244V51.8906H201.168L198.036 53.9361V52.044L201.302 49.9091H203.226ZM211.088 63.179C210.287 63.179 209.567 63.0256 208.928 62.7188C208.293 62.4077 207.786 61.9815 207.406 61.4403C207.027 60.8991 206.825 60.2812 206.799 59.5866H208.717C208.763 60.1491 209.013 60.6115 209.464 60.9737C209.916 61.3359 210.457 61.517 211.088 61.517C211.591 61.517 212.036 61.402 212.424 61.1719C212.816 60.9375 213.123 60.6158 213.344 60.2067C213.57 59.7976 213.683 59.331 213.683 58.8068C213.683 58.2741 213.568 57.799 213.338 57.3814C213.108 56.9638 212.79 56.6357 212.386 56.397C211.985 56.1584 211.525 56.0369 211.005 56.0327C210.609 56.0327 210.21 56.1009 209.81 56.2372C209.409 56.3736 209.085 56.5526 208.838 56.7741L207.029 56.5057L207.764 49.9091H214.962V51.603H209.407L208.991 55.2656H209.068C209.324 55.0185 209.663 54.8118 210.085 54.6456C210.511 54.4794 210.967 54.3963 211.452 54.3963C212.249 54.3963 212.959 54.5859 213.581 54.9652C214.207 55.3445 214.7 55.8622 215.058 56.5185C215.42 57.1705 215.599 57.9205 215.594 58.7685C215.599 59.6165 215.407 60.3729 215.019 61.0376C214.636 61.7024 214.103 62.2266 213.421 62.6101C212.744 62.9893 211.966 63.179 211.088 63.179ZM224.762 60.5455V59.8551C224.762 59.3608 224.865 58.9091 225.069 58.5C225.278 58.0866 225.58 57.7564 225.977 57.5092C226.377 57.2578 226.861 57.1321 227.428 57.1321C228.007 57.1321 228.493 57.2557 228.885 57.5028C229.277 57.75 229.573 58.0803 229.774 58.4936C229.978 58.907 230.08 59.3608 230.08 59.8551V60.5455C230.08 61.0398 229.978 61.4936 229.774 61.907C229.569 62.3161 229.269 62.6463 228.872 62.8977C228.48 63.1449 227.999 63.2685 227.428 63.2685C226.852 63.2685 226.367 63.1449 225.97 62.8977C225.574 62.6463 225.274 62.3161 225.069 61.907C224.865 61.4936 224.762 61.0398 224.762 60.5455ZM226.252 59.8551V60.5455C226.252 60.9119 226.339 61.2443 226.514 61.5426C226.688 61.8409 226.993 61.9901 227.428 61.9901C227.858 61.9901 228.159 61.8409 228.329 61.5426C228.499 61.2443 228.585 60.9119 228.585 60.5455V59.8551C228.585 59.4886 228.502 59.1562 228.335 58.858C228.173 58.5597 227.871 58.4105 227.428 58.4105C227.002 58.4105 226.699 58.5597 226.52 58.858C226.341 59.1562 226.252 59.4886 226.252 59.8551ZM218.178 53.054V52.3636C218.178 51.8693 218.281 51.4155 218.485 51.0021C218.694 50.5888 218.997 50.2585 219.393 50.0114C219.794 49.7642 220.277 49.6406 220.844 49.6406C221.423 49.6406 221.909 49.7642 222.301 50.0114C222.693 50.2585 222.99 50.5888 223.19 51.0021C223.39 51.4155 223.49 51.8693 223.49 52.3636V53.054C223.49 53.5483 223.388 54.0021 223.183 54.4155C222.983 54.8246 222.685 55.1548 222.289 55.4062C221.896 55.6534 221.415 55.777 220.844 55.777C220.264 55.777 219.776 55.6534 219.38 55.4062C218.988 55.1548 218.69 54.8246 218.485 54.4155C218.281 54.0021 218.178 53.5483 218.178 53.054ZM219.674 52.3636V53.054C219.674 53.4205 219.759 53.7528 219.93 54.0511C220.105 54.3494 220.409 54.4986 220.844 54.4986C221.27 54.4986 221.568 54.3494 221.739 54.0511C221.914 53.7528 222.001 53.4205 222.001 53.054V52.3636C222.001 51.9972 221.918 51.6648 221.752 51.3665C221.585 51.0682 221.283 50.919 220.844 50.919C220.418 50.919 220.115 51.0682 219.936 51.3665C219.762 51.6648 219.674 51.9972 219.674 52.3636ZM218.786 63L227.786 49.9091H229.313L220.313 63H218.786Z" fill="white"/>
<path d="M75.8168 111.179C74.9389 111.179 74.1548 111.028 73.4645 110.725C72.7784 110.423 72.2351 110.003 71.8345 109.466C71.4382 108.925 71.2251 108.298 71.1953 107.587H73.2024C73.228 107.974 73.358 108.311 73.5923 108.597C73.831 108.878 74.142 109.095 74.5256 109.249C74.9091 109.402 75.3352 109.479 75.804 109.479C76.3196 109.479 76.7756 109.389 77.1719 109.21C77.5724 109.031 77.8857 108.782 78.1115 108.462C78.3374 108.138 78.4503 107.766 78.4503 107.344C78.4503 106.905 78.3374 106.519 78.1115 106.187C77.8899 105.85 77.5639 105.586 77.1335 105.394C76.7074 105.202 76.1918 105.107 75.5866 105.107H74.4808V103.496H75.5866C76.0724 103.496 76.4986 103.408 76.8651 103.234C77.2358 103.059 77.5256 102.816 77.7344 102.505C77.9432 102.19 78.0476 101.821 78.0476 101.399C78.0476 100.994 77.956 100.643 77.7727 100.344C77.5938 100.042 77.3381 99.8054 77.0057 99.6349C76.6776 99.4645 76.2898 99.3793 75.8423 99.3793C75.4162 99.3793 75.0178 99.4581 74.647 99.6158C74.2805 99.7692 73.9822 99.9908 73.7521 100.281C73.522 100.566 73.3984 100.909 73.3814 101.31H71.4702C71.4915 100.602 71.7003 99.9801 72.0966 99.4432C72.4972 98.9062 73.0256 98.4865 73.6818 98.1839C74.3381 97.8814 75.0668 97.7301 75.8679 97.7301C76.7074 97.7301 77.4318 97.8942 78.0412 98.2223C78.6548 98.5462 79.1278 98.9787 79.4602 99.5199C79.7969 100.061 79.9631 100.653 79.9588 101.297C79.9631 102.03 79.7585 102.652 79.3452 103.163C78.9361 103.675 78.3906 104.018 77.7088 104.192V104.295C78.5781 104.427 79.2514 104.772 79.7287 105.33C80.2102 105.888 80.4489 106.581 80.4446 107.408C80.4489 108.128 80.2486 108.773 79.8438 109.344C79.4432 109.915 78.8956 110.365 78.201 110.693C77.5064 111.017 76.7116 111.179 75.8168 111.179ZM87.4183 111.217C86.4084 111.213 85.5455 110.947 84.8295 110.418C84.1136 109.89 83.5661 109.121 83.1868 108.111C82.8075 107.101 82.6179 105.884 82.6179 104.461C82.6179 103.042 82.8075 101.83 83.1868 100.824C83.5703 99.8182 84.12 99.0511 84.8359 98.5227C85.5561 97.9943 86.4169 97.7301 87.4183 97.7301C88.4197 97.7301 89.2784 97.9964 89.9943 98.5291C90.7102 99.0575 91.2578 99.8246 91.6371 100.83C92.0206 101.832 92.2124 103.042 92.2124 104.461C92.2124 105.888 92.0227 107.107 91.6435 108.117C91.2642 109.123 90.7166 109.892 90.0007 110.425C89.2848 110.953 88.424 111.217 87.4183 111.217ZM87.4183 109.511C88.3047 109.511 88.9972 109.078 89.4957 108.213C89.9986 107.348 90.25 106.097 90.25 104.461C90.25 103.374 90.1349 102.456 89.9048 101.706C89.679 100.952 89.353 100.381 88.9268 99.9929C88.505 99.6009 88.0021 99.4048 87.4183 99.4048C86.5362 99.4048 85.8438 99.8395 85.3409 100.709C84.8381 101.578 84.5845 102.829 84.5803 104.461C84.5803 105.552 84.6932 106.474 84.919 107.229C85.1491 107.979 85.4751 108.548 85.897 108.935C86.3189 109.319 86.826 109.511 87.4183 109.511ZM101.313 108.545V107.855C101.313 107.361 101.415 106.909 101.62 106.5C101.829 106.087 102.131 105.756 102.528 105.509C102.928 105.258 103.412 105.132 103.979 105.132C104.558 105.132 105.044 105.256 105.436 105.503C105.828 105.75 106.124 106.08 106.324 106.494C106.529 106.907 106.631 107.361 106.631 107.855V108.545C106.631 109.04 106.529 109.494 106.324 109.907C106.12 110.316 105.819 110.646 105.423 110.898C105.031 111.145 104.55 111.268 103.979 111.268C103.403 111.268 102.917 111.145 102.521 110.898C102.125 110.646 101.824 110.316 101.62 109.907C101.415 109.494 101.313 109.04 101.313 108.545ZM102.802 107.855V108.545C102.802 108.912 102.89 109.244 103.064 109.543C103.239 109.841 103.544 109.99 103.979 109.99C104.409 109.99 104.709 109.841 104.88 109.543C105.05 109.244 105.135 108.912 105.135 108.545V107.855C105.135 107.489 105.052 107.156 104.886 106.858C104.724 106.56 104.422 106.411 103.979 106.411C103.552 106.411 103.25 106.56 103.071 106.858C102.892 107.156 102.802 107.489 102.802 107.855ZM94.7292 101.054V100.364C94.7292 99.8693 94.8315 99.4155 95.036 99.0021C95.2449 98.5888 95.5474 98.2585 95.9437 98.0114C96.3443 97.7642 96.8279 97.6406 97.3947 97.6406C97.9743 97.6406 98.46 97.7642 98.8521 98.0114C99.2441 98.2585 99.5403 98.5888 99.7406 99.0021C99.9409 99.4155 100.041 99.8693 100.041 100.364V101.054C100.041 101.548 99.9387 102.002 99.7342 102.415C99.5339 102.825 99.2356 103.155 98.8393 103.406C98.4473 103.653 97.9657 103.777 97.3947 103.777C96.8152 103.777 96.3272 103.653 95.9309 103.406C95.5389 103.155 95.2406 102.825 95.036 102.415C94.8315 102.002 94.7292 101.548 94.7292 101.054ZM96.225 100.364V101.054C96.225 101.42 96.3102 101.753 96.4806 102.051C96.6554 102.349 96.96 102.499 97.3947 102.499C97.8208 102.499 98.1191 102.349 98.2896 102.051C98.4643 101.753 98.5517 101.42 98.5517 101.054V100.364C98.5517 99.9972 98.4686 99.6648 98.3024 99.3665C98.1362 99.0682 97.8336 98.919 97.3947 98.919C96.9686 98.919 96.666 99.0682 96.487 99.3665C96.3123 99.6648 96.225 99.9972 96.225 100.364ZM95.3365 111L104.336 97.9091H105.864L96.8642 111H95.3365Z" fill="white"/>
<path d="M53.5803 195.179C52.7791 195.179 52.0589 195.026 51.4197 194.719C50.7848 194.408 50.2777 193.982 49.8984 193.44C49.5192 192.899 49.3168 192.281 49.2912 191.587H51.2088C51.2557 192.149 51.505 192.612 51.9567 192.974C52.4084 193.336 52.9496 193.517 53.5803 193.517C54.0831 193.517 54.5284 193.402 54.9162 193.172C55.3082 192.938 55.6151 192.616 55.8366 192.207C56.0625 191.798 56.1754 191.331 56.1754 190.807C56.1754 190.274 56.0604 189.799 55.8303 189.381C55.6001 188.964 55.2827 188.636 54.8778 188.397C54.4773 188.158 54.017 188.037 53.4972 188.033C53.1009 188.033 52.7024 188.101 52.3018 188.237C51.9013 188.374 51.5774 188.553 51.3303 188.774L49.5213 188.506L50.2564 181.909H57.4538V183.603H51.8991L51.4837 187.266H51.5604C51.8161 187.018 52.1548 186.812 52.5767 186.646C53.0028 186.479 53.4588 186.396 53.9446 186.396C54.7415 186.396 55.451 186.586 56.0732 186.965C56.6996 187.344 57.1918 187.862 57.5497 188.518C57.9119 189.17 58.0909 189.92 58.0866 190.768C58.0909 191.616 57.8991 192.373 57.5114 193.038C57.1278 193.702 56.5952 194.227 55.9134 194.61C55.2358 194.989 54.4581 195.179 53.5803 195.179ZM67.2544 192.545V191.855C67.2544 191.361 67.3567 190.909 67.5613 190.5C67.7701 190.087 68.0726 189.756 68.4689 189.509C68.8695 189.258 69.3532 189.132 69.9199 189.132C70.4995 189.132 70.9853 189.256 71.3773 189.503C71.7694 189.75 72.0655 190.08 72.2658 190.494C72.4703 190.907 72.5726 191.361 72.5726 191.855V192.545C72.5726 193.04 72.4703 193.494 72.2658 193.907C72.0613 194.316 71.7608 194.646 71.3645 194.898C70.9725 195.145 70.4909 195.268 69.9199 195.268C69.3446 195.268 68.8588 195.145 68.4625 194.898C68.0662 194.646 67.7658 194.316 67.5613 193.907C67.3567 193.494 67.2544 193.04 67.2544 192.545ZM68.7438 191.855V192.545C68.7438 192.912 68.8311 193.244 69.0059 193.543C69.1806 193.841 69.4853 193.99 69.9199 193.99C70.3503 193.99 70.6507 193.841 70.8212 193.543C70.9917 193.244 71.0769 192.912 71.0769 192.545V191.855C71.0769 191.489 70.9938 191.156 70.8276 190.858C70.6657 190.56 70.3631 190.411 69.9199 190.411C69.4938 190.411 69.1912 190.56 69.0123 190.858C68.8333 191.156 68.7438 191.489 68.7438 191.855ZM60.6706 185.054V184.364C60.6706 183.869 60.7729 183.415 60.9775 183.002C61.1863 182.589 61.4888 182.259 61.8851 182.011C62.2857 181.764 62.7694 181.641 63.3361 181.641C63.9157 181.641 64.4015 181.764 64.7935 182.011C65.1855 182.259 65.4817 182.589 65.682 183.002C65.8823 183.415 65.9824 183.869 65.9824 184.364V185.054C65.9824 185.548 65.8801 186.002 65.6756 186.415C65.4753 186.825 65.177 187.155 64.7807 187.406C64.3887 187.653 63.9071 187.777 63.3361 187.777C62.7566 187.777 62.2686 187.653 61.8723 187.406C61.4803 187.155 61.182 186.825 60.9775 186.415C60.7729 186.002 60.6706 185.548 60.6706 185.054ZM62.1664 184.364V185.054C62.1664 185.42 62.2516 185.753 62.4221 186.051C62.5968 186.349 62.9015 186.499 63.3361 186.499C63.7623 186.499 64.0605 186.349 64.231 186.051C64.4057 185.753 64.4931 185.42 64.4931 185.054V184.364C64.4931 183.997 64.41 183.665 64.2438 183.366C64.0776 183.068 63.775 182.919 63.3361 182.919C62.91 182.919 62.6074 183.068 62.4284 183.366C62.2537 183.665 62.1664 183.997 62.1664 184.364ZM61.2779 195L70.2779 181.909H71.8056L62.8056 195H61.2779Z" fill="white"/>
<path d="M101.226 247.909V261H99.2443V249.891H99.1676L96.0355 251.936V250.044L99.3018 247.909H101.226ZM109.325 261.179C108.447 261.179 107.663 261.028 106.972 260.725C106.286 260.423 105.743 260.003 105.342 259.466C104.946 258.925 104.733 258.298 104.703 257.587H106.71C106.736 257.974 106.866 258.311 107.1 258.597C107.339 258.878 107.65 259.095 108.033 259.249C108.417 259.402 108.843 259.479 109.312 259.479C109.827 259.479 110.283 259.389 110.68 259.21C111.08 259.031 111.393 258.782 111.619 258.462C111.845 258.138 111.958 257.766 111.958 257.344C111.958 256.905 111.845 256.519 111.619 256.187C111.398 255.85 111.072 255.586 110.641 255.394C110.215 255.202 109.7 255.107 109.094 255.107H107.989V253.496H109.094C109.58 253.496 110.006 253.408 110.373 253.234C110.744 253.059 111.033 252.816 111.242 252.505C111.451 252.19 111.555 251.821 111.555 251.399C111.555 250.994 111.464 250.643 111.281 250.344C111.102 250.042 110.846 249.805 110.513 249.635C110.185 249.464 109.798 249.379 109.35 249.379C108.924 249.379 108.526 249.458 108.155 249.616C107.788 249.769 107.49 249.991 107.26 250.281C107.03 250.566 106.906 250.909 106.889 251.31H104.978C104.999 250.602 105.208 249.98 105.604 249.443C106.005 248.906 106.533 248.487 107.19 248.184C107.846 247.881 108.575 247.73 109.376 247.73C110.215 247.73 110.94 247.894 111.549 248.222C112.163 248.546 112.636 248.979 112.968 249.52C113.305 250.061 113.471 250.653 113.467 251.297C113.471 252.03 113.266 252.652 112.853 253.163C112.444 253.675 111.898 254.018 111.217 254.192V254.295C112.086 254.427 112.759 254.772 113.237 255.33C113.718 255.888 113.957 256.581 113.952 257.408C113.957 258.128 113.756 258.773 113.352 259.344C112.951 259.915 112.403 260.365 111.709 260.693C111.014 261.017 110.219 261.179 109.325 261.179ZM123.202 258.545V257.855C123.202 257.361 123.304 256.909 123.509 256.5C123.717 256.087 124.02 255.756 124.416 255.509C124.817 255.258 125.3 255.132 125.867 255.132C126.447 255.132 126.933 255.256 127.325 255.503C127.717 255.75 128.013 256.08 128.213 256.494C128.418 256.907 128.52 257.361 128.52 257.855V258.545C128.52 259.04 128.418 259.494 128.213 259.907C128.009 260.316 127.708 260.646 127.312 260.898C126.92 261.145 126.438 261.268 125.867 261.268C125.292 261.268 124.806 261.145 124.41 260.898C124.013 260.646 123.713 260.316 123.509 259.907C123.304 259.494 123.202 259.04 123.202 258.545ZM124.691 257.855V258.545C124.691 258.912 124.778 259.244 124.953 259.543C125.128 259.841 125.433 259.99 125.867 259.99C126.298 259.99 126.598 259.841 126.768 259.543C126.939 259.244 127.024 258.912 127.024 258.545V257.855C127.024 257.489 126.941 257.156 126.775 256.858C126.613 256.56 126.31 256.411 125.867 256.411C125.441 256.411 125.138 256.56 124.96 256.858C124.781 257.156 124.691 257.489 124.691 257.855ZM116.618 251.054V250.364C116.618 249.869 116.72 249.415 116.925 249.002C117.134 248.589 117.436 248.259 117.832 248.011C118.233 247.764 118.717 247.641 119.283 247.641C119.863 247.641 120.349 247.764 120.741 248.011C121.133 248.259 121.429 248.589 121.629 249.002C121.83 249.415 121.93 249.869 121.93 250.364V251.054C121.93 251.548 121.827 252.002 121.623 252.415C121.423 252.825 121.124 253.155 120.728 253.406C120.336 253.653 119.854 253.777 119.283 253.777C118.704 253.777 118.216 253.653 117.82 253.406C117.428 253.155 117.129 252.825 116.925 252.415C116.72 252.002 116.618 251.548 116.618 251.054ZM118.114 250.364V251.054C118.114 251.42 118.199 251.753 118.369 252.051C118.544 252.349 118.849 252.499 119.283 252.499C119.71 252.499 120.008 252.349 120.178 252.051C120.353 251.753 120.44 251.42 120.44 251.054V250.364C120.44 249.997 120.357 249.665 120.191 249.366C120.025 249.068 119.722 248.919 119.283 248.919C118.857 248.919 118.555 249.068 118.376 249.366C118.201 249.665 118.114 249.997 118.114 250.364ZM117.225 261L126.225 247.909H127.753L118.753 261H117.225Z" fill="white"/>
<path d="M164.7 286L170.415 274.699V274.603H163.805V272.909H172.46V274.661L166.765 286H164.7ZM181.516 283.545V282.855C181.516 282.361 181.618 281.909 181.823 281.5C182.032 281.087 182.334 280.756 182.731 280.509C183.131 280.258 183.615 280.132 184.182 280.132C184.761 280.132 185.247 280.256 185.639 280.503C186.031 280.75 186.327 281.08 186.528 281.494C186.732 281.907 186.834 282.361 186.834 282.855V283.545C186.834 284.04 186.732 284.494 186.528 284.907C186.323 285.316 186.023 285.646 185.626 285.898C185.234 286.145 184.753 286.268 184.182 286.268C183.606 286.268 183.121 286.145 182.724 285.898C182.328 285.646 182.028 285.316 181.823 284.907C181.618 284.494 181.516 284.04 181.516 283.545ZM183.006 282.855V283.545C183.006 283.912 183.093 284.244 183.268 284.543C183.442 284.841 183.747 284.99 184.182 284.99C184.612 284.99 184.912 284.841 185.083 284.543C185.253 284.244 185.339 283.912 185.339 283.545V282.855C185.339 282.489 185.256 282.156 185.089 281.858C184.927 281.56 184.625 281.411 184.182 281.411C183.756 281.411 183.453 281.56 183.274 281.858C183.095 282.156 183.006 282.489 183.006 282.855ZM174.932 276.054V275.364C174.932 274.869 175.035 274.415 175.239 274.002C175.448 273.589 175.751 273.259 176.147 273.011C176.547 272.764 177.031 272.641 177.598 272.641C178.177 272.641 178.663 272.764 179.055 273.011C179.447 273.259 179.743 273.589 179.944 274.002C180.144 274.415 180.244 274.869 180.244 275.364V276.054C180.244 276.548 180.142 277.002 179.937 277.415C179.737 277.825 179.439 278.155 179.042 278.406C178.65 278.653 178.169 278.777 177.598 278.777C177.018 278.777 176.53 278.653 176.134 278.406C175.742 278.155 175.444 277.825 175.239 277.415C175.035 277.002 174.932 276.548 174.932 276.054ZM176.428 275.364V276.054C176.428 276.42 176.513 276.753 176.684 277.051C176.858 277.349 177.163 277.499 177.598 277.499C178.024 277.499 178.322 277.349 178.493 277.051C178.667 276.753 178.755 276.42 178.755 276.054V275.364C178.755 274.997 178.672 274.665 178.506 274.366C178.339 274.068 178.037 273.919 177.598 273.919C177.172 273.919 176.869 274.068 176.69 274.366C176.515 274.665 176.428 274.997 176.428 275.364ZM175.54 286L184.54 272.909H186.067L177.067 286H175.54Z" fill="white"/>
<path d="M241.259 217V215.568L245.689 210.979C246.162 210.48 246.552 210.043 246.859 209.668C247.17 209.289 247.402 208.929 247.555 208.588C247.709 208.247 247.786 207.885 247.786 207.501C247.786 207.067 247.683 206.692 247.479 206.376C247.274 206.057 246.995 205.812 246.641 205.641C246.288 205.467 245.889 205.379 245.446 205.379C244.977 205.379 244.568 205.475 244.219 205.667C243.869 205.859 243.601 206.129 243.413 206.479C243.226 206.828 243.132 207.237 243.132 207.706H241.246C241.246 206.909 241.43 206.212 241.796 205.616C242.163 205.019 242.665 204.557 243.305 204.229C243.944 203.896 244.67 203.73 245.484 203.73C246.307 203.73 247.031 203.894 247.658 204.222C248.288 204.546 248.781 204.989 249.134 205.552C249.488 206.11 249.665 206.741 249.665 207.444C249.665 207.93 249.573 208.405 249.39 208.869C249.211 209.334 248.898 209.852 248.45 210.423C248.003 210.989 247.381 211.678 246.584 212.487L243.982 215.21V215.306H249.876V217H241.259ZM256.856 217.217C255.846 217.213 254.983 216.947 254.267 216.418C253.551 215.89 253.004 215.121 252.624 214.111C252.245 213.101 252.055 211.884 252.055 210.461C252.055 209.042 252.245 207.83 252.624 206.824C253.008 205.818 253.558 205.051 254.273 204.523C254.994 203.994 255.854 203.73 256.856 203.73C257.857 203.73 258.716 203.996 259.432 204.529C260.148 205.058 260.695 205.825 261.075 206.83C261.458 207.832 261.65 209.042 261.65 210.461C261.65 211.888 261.46 213.107 261.081 214.117C260.702 215.123 260.154 215.892 259.438 216.425C258.722 216.953 257.862 217.217 256.856 217.217ZM256.856 215.511C257.742 215.511 258.435 215.078 258.933 214.213C259.436 213.348 259.688 212.097 259.688 210.461C259.688 209.374 259.572 208.456 259.342 207.706C259.116 206.952 258.79 206.381 258.364 205.993C257.942 205.601 257.44 205.405 256.856 205.405C255.974 205.405 255.281 205.839 254.778 206.709C254.276 207.578 254.022 208.829 254.018 210.461C254.018 211.552 254.131 212.474 254.357 213.229C254.587 213.979 254.913 214.548 255.335 214.935C255.756 215.319 256.263 215.511 256.856 215.511ZM270.751 214.545V213.855C270.751 213.361 270.853 212.909 271.057 212.5C271.266 212.087 271.569 211.756 271.965 211.509C272.366 211.258 272.849 211.132 273.416 211.132C273.996 211.132 274.481 211.256 274.873 211.503C275.265 211.75 275.562 212.08 275.762 212.494C275.966 212.907 276.069 213.361 276.069 213.855V214.545C276.069 215.04 275.966 215.494 275.762 215.907C275.557 216.316 275.257 216.646 274.861 216.898C274.469 217.145 273.987 217.268 273.416 217.268C272.841 217.268 272.355 217.145 271.959 216.898C271.562 216.646 271.262 216.316 271.057 215.907C270.853 215.494 270.751 215.04 270.751 214.545ZM272.24 213.855V214.545C272.24 214.912 272.327 215.244 272.502 215.543C272.677 215.841 272.981 215.99 273.416 215.99C273.846 215.99 274.147 215.841 274.317 215.543C274.488 215.244 274.573 214.912 274.573 214.545V213.855C274.573 213.489 274.49 213.156 274.324 212.858C274.162 212.56 273.859 212.411 273.416 212.411C272.99 212.411 272.687 212.56 272.508 212.858C272.329 213.156 272.24 213.489 272.24 213.855ZM264.167 207.054V206.364C264.167 205.869 264.269 205.415 264.474 205.002C264.682 204.589 264.985 204.259 265.381 204.011C265.782 203.764 266.265 203.641 266.832 203.641C267.412 203.641 267.898 203.764 268.29 204.011C268.682 204.259 268.978 204.589 269.178 205.002C269.378 205.415 269.479 205.869 269.479 206.364V207.054C269.479 207.548 269.376 208.002 269.172 208.415C268.971 208.825 268.673 209.155 268.277 209.406C267.885 209.653 267.403 209.777 266.832 209.777C266.253 209.777 265.765 209.653 265.368 209.406C264.976 209.155 264.678 208.825 264.474 208.415C264.269 208.002 264.167 207.548 264.167 207.054ZM265.662 206.364V207.054C265.662 207.42 265.748 207.753 265.918 208.051C266.093 208.349 266.398 208.499 266.832 208.499C267.258 208.499 267.557 208.349 267.727 208.051C267.902 207.753 267.989 207.42 267.989 207.054V206.364C267.989 205.997 267.906 205.665 267.74 205.366C267.574 205.068 267.271 204.919 266.832 204.919C266.406 204.919 266.104 205.068 265.925 205.366C265.75 205.665 265.662 205.997 265.662 206.364ZM264.774 217L273.774 203.909H275.302L266.302 217H264.774Z" fill="white"/>
<path d="M248.58 113.179C247.779 113.179 247.059 113.026 246.42 112.719C245.785 112.408 245.278 111.982 244.898 111.44C244.519 110.899 244.317 110.281 244.291 109.587H246.209C246.256 110.149 246.505 110.612 246.957 110.974C247.408 111.336 247.95 111.517 248.58 111.517C249.083 111.517 249.528 111.402 249.916 111.172C250.308 110.938 250.615 110.616 250.837 110.207C251.063 109.798 251.175 109.331 251.175 108.807C251.175 108.274 251.06 107.799 250.83 107.381C250.6 106.964 250.283 106.636 249.878 106.397C249.477 106.158 249.017 106.037 248.497 106.033C248.101 106.033 247.702 106.101 247.302 106.237C246.901 106.374 246.577 106.553 246.33 106.774L244.521 106.506L245.256 99.9091H252.454V101.603H246.899L246.484 105.266H246.56C246.816 105.018 247.155 104.812 247.577 104.646C248.003 104.479 248.459 104.396 248.945 104.396C249.741 104.396 250.451 104.586 251.073 104.965C251.7 105.344 252.192 105.862 252.55 106.518C252.912 107.17 253.091 107.92 253.087 108.768C253.091 109.616 252.899 110.373 252.511 111.038C252.128 111.702 251.595 112.227 250.913 112.61C250.236 112.989 249.458 113.179 248.58 113.179ZM262.254 110.545V109.855C262.254 109.361 262.357 108.909 262.561 108.5C262.77 108.087 263.073 107.756 263.469 107.509C263.869 107.258 264.353 107.132 264.92 107.132C265.499 107.132 265.985 107.256 266.377 107.503C266.769 107.75 267.066 108.08 267.266 108.494C267.47 108.907 267.573 109.361 267.573 109.855V110.545C267.573 111.04 267.47 111.494 267.266 111.907C267.061 112.316 266.761 112.646 266.365 112.898C265.972 113.145 265.491 113.268 264.92 113.268C264.345 113.268 263.859 113.145 263.463 112.898C263.066 112.646 262.766 112.316 262.561 111.907C262.357 111.494 262.254 111.04 262.254 110.545ZM263.744 109.855V110.545C263.744 110.912 263.831 111.244 264.006 111.543C264.181 111.841 264.485 111.99 264.92 111.99C265.35 111.99 265.651 111.841 265.821 111.543C265.992 111.244 266.077 110.912 266.077 110.545V109.855C266.077 109.489 265.994 109.156 265.828 108.858C265.666 108.56 265.363 108.411 264.92 108.411C264.494 108.411 264.191 108.56 264.012 108.858C263.833 109.156 263.744 109.489 263.744 109.855ZM255.671 103.054V102.364C255.671 101.869 255.773 101.415 255.977 101.002C256.186 100.589 256.489 100.259 256.885 100.011C257.286 99.7642 257.769 99.6406 258.336 99.6406C258.916 99.6406 259.401 99.7642 259.794 100.011C260.186 100.259 260.482 100.589 260.682 101.002C260.882 101.415 260.982 101.869 260.982 102.364V103.054C260.982 103.548 260.88 104.002 260.676 104.415C260.475 104.825 260.177 105.155 259.781 105.406C259.389 105.653 258.907 105.777 258.336 105.777C257.757 105.777 257.269 105.653 256.872 105.406C256.48 105.155 256.182 104.825 255.977 104.415C255.773 104.002 255.671 103.548 255.671 103.054ZM257.166 102.364V103.054C257.166 103.42 257.252 103.753 257.422 104.051C257.597 104.349 257.901 104.499 258.336 104.499C258.762 104.499 259.061 104.349 259.231 104.051C259.406 103.753 259.493 103.42 259.493 103.054V102.364C259.493 101.997 259.41 101.665 259.244 101.366C259.078 101.068 258.775 100.919 258.336 100.919C257.91 100.919 257.607 101.068 257.428 101.366C257.254 101.665 257.166 101.997 257.166 102.364ZM256.278 113L265.278 99.9091H266.806L257.806 113H256.278Z" fill="white"/>
</svg>
