<svg width="81" height="81" viewBox="0 0 81 81" fill="none" xmlns="http://www.w3.org/2000/svg">
<path d="M48.6 65.25C48.6 64.6533 48.363 64.081 47.941 63.659C47.519 63.2371 46.9467 63 46.35 63H32.85C32.2533 63 31.681 63.2371 31.259 63.659C30.8371 64.081 30.6 64.6533 30.6 65.25C30.6 65.8467 30.8371 66.419 31.259 66.841C31.681 67.2629 32.2533 67.5 32.85 67.5H46.35C46.9467 67.5 47.519 67.2629 47.941 66.841C48.363 66.419 48.6 65.8467 48.6 65.25Z" fill="#FCC7B7"/>
<path d="M50.715 54H37.215C36.6183 54 36.046 54.2371 35.624 54.659C35.2021 55.081 34.965 55.6533 34.965 56.25C34.965 56.8467 35.2021 57.419 35.624 57.841C36.046 58.2629 36.6183 58.5 37.215 58.5H50.715C51.3118 58.5 51.8841 58.2629 52.306 57.841C52.728 57.419 52.965 56.8467 52.965 56.25C52.965 55.6533 52.728 55.081 52.306 54.659C51.8841 54.2371 51.3118 54 50.715 54Z" fill="#FCC7B7"/>
<path d="M49.5 72H36C35.4033 72 34.831 72.2371 34.409 72.659C33.9871 73.081 33.75 73.6533 33.75 74.25C33.75 74.8467 33.9871 75.419 34.409 75.841C34.831 76.2629 35.4033 76.5 36 76.5H49.5C50.0967 76.5 50.669 76.2629 51.091 75.841C51.5129 75.419 51.75 74.8467 51.75 74.25C51.75 73.6533 51.5129 73.081 51.091 72.659C50.669 72.2371 50.0967 72 49.5 72Z" fill="#FCC7B7"/>
<path d="M73.575 72H57.825C57.2283 72 56.656 72.2371 56.234 72.659C55.8121 73.081 55.575 73.6533 55.575 74.25C55.575 74.8467 55.8121 75.419 56.234 75.841C56.656 76.2629 57.2283 76.5 57.825 76.5H73.575C74.1717 76.5 74.744 76.2629 75.166 75.841C75.588 75.419 75.825 74.8467 75.825 74.25C75.825 73.6533 75.588 73.081 75.166 72.659C74.744 72.2371 74.1717 72 73.575 72Z" fill="#FCC7B7"/>
<path d="M75.825 63H60.075C59.4783 63 58.906 63.2371 58.484 63.659C58.0621 64.081 57.825 64.6533 57.825 65.25C57.825 65.8467 58.0621 66.419 58.484 66.841C58.906 67.2629 59.4783 67.5 60.075 67.5H75.825C76.4217 67.5 76.994 67.2629 77.416 66.841C77.838 66.419 78.075 65.8467 78.075 65.25C78.075 64.6533 77.838 64.081 77.416 63.659C76.994 63.2371 76.4217 63 75.825 63Z" fill="#FCC7B7"/>
<path d="M75.915 58.5C75.2556 50.5777 73.1027 42.8517 69.57 35.73C66.1859 29.2944 61.31 23.7627 55.35 19.5975L60.75 7.69501C60.9241 7.33929 61.0012 6.94392 60.9736 6.54885C60.9459 6.15378 60.8145 5.77301 60.5925 5.44501C60.3877 5.15727 60.1181 4.92179 59.8054 4.75762C59.4926 4.59345 59.1457 4.5052 58.7925 4.50001H22.05C21.6718 4.49907 21.2994 4.5935 20.9673 4.77458C20.6352 4.95566 20.3542 5.21753 20.1501 5.53599C19.946 5.85446 19.8255 6.21923 19.7997 6.5966C19.7739 6.97396 19.8437 7.35174 20.0025 7.69501L25.515 19.6425C19.5986 23.8116 14.756 29.3251 11.385 35.73C6.54754 44.73 5.04004 55.7325 4.63504 63.36C4.56872 64.4766 4.7344 65.5949 5.12165 66.6443C5.50889 67.6938 6.1093 68.6516 6.88504 69.4575C7.70034 70.2494 8.66573 70.8703 9.72445 71.2838C10.7832 71.6972 11.9138 71.8948 13.05 71.865H27V67.5H12.87C12.3608 67.4984 11.8572 67.394 11.3894 67.1929C10.9215 66.9919 10.4991 66.6983 10.1475 66.33C9.79542 65.9646 9.52349 65.5297 9.34914 65.0531C9.17479 64.5766 9.10186 64.0689 9.13504 63.5625C9.45004 57.69 10.6875 46.5075 15.345 37.8C18.6283 31.561 23.4834 26.2871 29.43 22.5H31.68C30.1553 24.6093 28.7506 26.8028 27.4725 29.07C26.1708 31.4825 25.0648 33.9956 24.165 36.585L27.2475 38.655C28.1582 35.9685 29.2792 33.3579 30.6 30.8475C32.222 27.9285 34.0649 25.1379 36.1125 22.5H38.3625C39.8719 26.1076 40.9372 29.8853 41.535 33.75C42.0238 36.619 42.2647 39.5247 42.255 42.435L45.81 39.9375C45.711 37.6747 45.4705 35.4203 45.09 33.1875C44.4863 29.5384 43.5216 25.9583 42.21 22.5H43.965L46.0125 18H29.7225L25.56 9.00001H55.2825L49.6575 21.3075C50.6218 21.824 51.5467 22.4106 52.425 23.0625C57.9379 26.8659 62.4591 31.9349 65.61 37.845C68.7661 44.3254 70.725 51.3229 71.3925 58.5H75.915Z" fill="#FCC7B7"/>
</svg>
