<svg width="81" height="81" viewBox="0 0 81 81" fill="none" xmlns="http://www.w3.org/2000/svg">
<path d="M35.4375 15.1875C35.4375 12.2337 34.2641 9.40083 32.1754 7.31215C30.0867 5.22346 27.2538 4.05005 24.3 4.05005C21.3462 4.05005 18.5133 5.22346 16.4246 7.31215C14.3359 9.40083 13.1625 12.2337 13.1625 15.1875C13.1625 18.1414 14.3359 20.9743 16.4246 23.063C18.5133 25.1516 21.3462 26.3251 24.3 26.3251C27.2538 26.3251 30.0867 25.1516 32.1754 23.063C34.2641 20.9743 35.4375 18.1414 35.4375 15.1875ZM17.2125 15.1875C17.2125 14.2568 17.3958 13.3352 17.752 12.4753C18.1082 11.6154 18.6302 10.8341 19.2884 10.1759C19.9465 9.51779 20.7278 8.99573 21.5877 8.63955C22.4476 8.28337 23.3693 8.10005 24.3 8.10005C25.2307 8.10005 26.1524 8.28337 27.0123 8.63955C27.8722 8.99573 28.6535 9.51779 29.3116 10.1759C29.9698 10.8341 30.4918 11.6154 30.848 12.4753C31.2042 13.3352 31.3875 14.2568 31.3875 15.1875C31.3875 17.0673 30.6408 18.87 29.3116 20.1992C27.9825 21.5283 26.1797 22.275 24.3 22.275C22.4203 22.275 20.6175 21.5283 19.2884 20.1992C17.9592 18.87 17.2125 17.0673 17.2125 15.1875ZM10.125 30.375H27.0662C26.402 31.6306 25.9079 32.9914 25.6162 34.4251H10.125C9.58794 34.4251 9.07287 34.6384 8.69311 35.0182C8.31335 35.3979 8.1 35.913 8.1 36.4501V38.4751C8.1 43.5781 12.551 49.0618 20.6388 50.3416C19.3347 51.2326 18.2493 52.4192 17.4757 53.8003C8.93025 51.4877 4.05 44.9024 4.05 38.4751V36.4501C4.05 34.8389 4.69004 33.2937 5.82933 32.1544C6.96861 31.0151 8.51381 30.375 10.125 30.375ZM31.91 30.375C33.9512 27.9046 37.0413 26.3251 40.5 26.3251C42.9254 26.3208 45.2856 27.1102 47.2205 28.5727C49.1554 30.0352 50.5587 32.0905 51.2163 34.4251C51.8025 36.5088 51.7694 38.718 51.1212 40.7833C50.473 42.8486 49.2377 44.6805 47.5659 46.0555C45.8941 47.4305 43.8583 48.2892 41.7068 48.5267C39.5552 48.7643 37.3811 48.3704 35.4497 47.3932C33.9626 46.6363 32.6645 45.555 31.6515 44.229C30.6384 42.9031 29.9362 41.3665 29.5968 39.7328C29.2574 38.0991 29.2894 36.4099 29.6905 34.7902C30.0915 33.1705 30.8514 31.6616 31.914 30.375H31.91ZM34.0969 34.4251C33.6981 35.2664 33.4688 36.1782 33.4223 37.1082C33.3757 38.0382 33.5128 38.9682 33.8257 39.8452C34.1386 40.7222 34.6212 41.529 35.2459 42.2195C35.8706 42.9101 36.6252 43.4708 37.4666 43.8696C38.3079 44.2685 39.2197 44.4978 40.1497 44.5443C41.0797 44.5909 42.0097 44.4538 42.8867 44.1409C43.7637 43.828 44.5705 43.3454 45.261 42.7207C45.9516 42.096 46.5123 41.3414 46.9112 40.5C47.7167 38.8002 47.8141 36.85 47.1818 35.0785C46.5495 33.3069 45.2393 31.859 43.5395 31.0534C41.8397 30.2478 39.8895 30.1505 38.1179 30.7828C36.3463 31.4151 34.8985 32.7252 34.0929 34.4251H34.0969ZM63.5243 53.8003C62.7528 52.4184 61.6698 51.2356 60.3612 50.3456C68.445 49.0617 72.9 43.574 72.9 38.4751V36.4501C72.9 35.913 72.6867 35.3979 72.3069 35.0182C71.9271 34.6384 71.4121 34.4251 70.875 34.4251H55.3838C55.0976 33.0129 54.6107 31.6491 53.9379 30.375H70.875C72.4862 30.375 74.0314 31.0151 75.1707 32.1544C76.31 33.2937 76.95 34.8389 76.95 36.4501V38.4751C76.95 44.9024 72.0657 51.4837 63.5243 53.8003ZM58.6724 54.1526C57.567 53.1822 56.1459 52.6481 54.675 52.6501H26.325C25.5266 52.6479 24.7357 52.8036 23.9977 53.1081C23.2597 53.4127 22.5891 53.8601 22.0246 54.4246C21.46 54.9892 21.0126 55.6597 20.7081 56.3977C20.4035 57.1357 20.2479 57.9267 20.25 58.7251V60.7501C20.25 68.7326 27.783 76.9501 40.5 76.9501C53.217 76.9501 60.75 68.7326 60.75 60.7501V58.7251C60.75 56.9025 59.9481 55.2663 58.6724 54.1486V54.1526ZM24.3 58.7251C24.3 58.188 24.5133 57.6729 24.8931 57.2932C25.2729 56.9134 25.7879 56.7001 26.325 56.7001H54.675C55.2121 56.7001 55.7271 56.9134 56.1069 57.2932C56.4867 57.6729 56.7 58.188 56.7 58.7251V60.7501C56.7 66.574 50.9004 72.9001 40.5 72.9001C30.0996 72.9001 24.3 66.574 24.3 60.7501V58.7251ZM56.7 4.05005C59.6539 4.05005 62.4867 5.22346 64.5754 7.31215C66.6641 9.40083 67.8375 12.2337 67.8375 15.1875C67.8375 18.1414 66.6641 20.9743 64.5754 23.063C62.4867 25.1516 59.6539 26.3251 56.7 26.3251C53.7462 26.3251 50.9133 25.1516 48.8246 23.063C46.7359 20.9743 45.5625 18.1414 45.5625 15.1875C45.5625 12.2337 46.7359 9.40083 48.8246 7.31215C50.9133 5.22346 53.7462 4.05005 56.7 4.05005ZM56.7 8.10005C54.8203 8.10005 53.0175 8.84677 51.6884 10.1759C50.3592 11.5051 49.6125 13.3078 49.6125 15.1875C49.6125 17.0673 50.3592 18.87 51.6884 20.1992C53.0175 21.5283 54.8203 22.275 56.7 22.275C58.5797 22.275 60.3825 21.5283 61.7116 20.1992C63.0408 18.87 63.7875 17.0673 63.7875 15.1875C63.7875 13.3078 63.0408 11.5051 61.7116 10.1759C60.3825 8.84677 58.5797 8.10005 56.7 8.10005Z" fill="#FCC7B7"/>
</svg>
