<svg width="27" height="26" viewBox="0 0 27 26" fill="none" xmlns="http://www.w3.org/2000/svg">
<path d="M15.469 15.3125C15.1661 15.634 14.8009 15.8919 14.395 16.0708C13.9892 16.2496 13.5511 16.3458 13.1069 16.3536C12.6627 16.3613 12.2214 16.2805 11.8094 16.1159C11.3975 15.9513 11.0232 15.7063 10.7091 15.3955C10.3949 15.0848 10.1472 14.7146 9.98084 14.3071C9.81444 13.8996 9.73273 13.4631 9.74057 13.0236C9.7484 12.5842 9.84564 12.1508 10.0265 11.7494C10.2073 11.3479 10.468 10.9866 10.7931 10.687M19.6818 19.4797C17.7966 20.9012 15.5011 21.6887 13.131 21.727C5.41129 21.727 1 12.9997 1 12.9997C2.37179 10.4709 4.27443 8.26148 6.58028 6.51973L19.6818 19.4797ZM10.8151 4.53428C11.5742 4.35851 12.3514 4.27065 13.131 4.27246C20.8508 4.27246 25.2621 12.9997 25.2621 12.9997C24.5927 14.2386 23.7943 15.4049 22.88 16.4797L10.8151 4.53428Z" stroke="#888888" stroke-width="2" stroke-linecap="round" stroke-linejoin="round"/>
<path d="M1 1L25.2621 25" stroke="#888888" stroke-width="2" stroke-linecap="round" stroke-linejoin="round"/>
</svg>
