<svg width="27" height="20" viewBox="0 0 27 20" fill="none" xmlns="http://www.w3.org/2000/svg">
<path d="M15.469 12.04C15.1661 12.3616 14.8009 12.6195 14.395 12.7983C13.9892 12.9772 13.5511 13.0734 13.1069 13.0812C12.6627 13.0889 12.2214 13.0081 11.8094 12.8435C11.3975 12.6789 11.0232 12.4339 10.7091 12.1231C10.3949 11.8123 10.1472 11.4421 9.98084 11.0346C9.81444 10.6271 9.73273 10.1906 9.74057 9.7512C9.7484 9.31177 9.84564 8.8784 10.0265 8.47695C10.2073 8.0755 10.468 7.71419 10.7931 7.41457M19.6818 16.2073C17.7966 17.6288 15.5011 18.4162 13.131 18.4546C5.41129 18.4546 1 9.7273 1 9.7273C2.37179 7.19846 4.27443 4.98905 6.58028 3.2473L19.6818 16.2073ZM10.8151 1.26185C11.5742 1.08608 12.3514 0.998215 13.131 1.00003C20.8508 1.00003 25.2621 9.7273 25.2621 9.7273C24.5927 10.9661 23.7943 12.1325 22.88 13.2073L10.8151 1.26185Z" stroke="#888888" stroke-width="2" stroke-linecap="round" stroke-linejoin="round"/>
</svg>
