<svg width="23" height="27" viewBox="0 0 23 27" fill="none" xmlns="http://www.w3.org/2000/svg">
<path d="M22.3089 10.8224H21.4154V10.7671H11.4323V16.0965H17.7011C16.7866 19.1988 14.329 21.4258 11.4323 21.4258C7.75679 21.4258 4.77681 17.8465 4.77681 13.4318C4.77681 9.01709 7.75679 5.43776 11.4323 5.43776C13.1288 5.43776 14.6724 6.20652 15.8476 7.46225L18.9851 3.69372C17.004 1.47605 14.354 0.108398 11.4323 0.108398C5.30647 0.108398 0.339844 6.07395 0.339844 13.4318C0.339844 20.7896 5.30647 26.7552 11.4323 26.7552C17.558 26.7552 22.5247 20.7896 22.5247 13.4318C22.5247 12.5385 22.4481 11.6664 22.3089 10.8224Z" fill="#FFC107"/>
<path d="M1.61816 7.23041L5.26258 10.4407C6.24869 7.5082 8.63689 5.43775 11.4316 5.43775C13.1282 5.43775 14.6717 6.20651 15.847 7.46224L18.9844 3.69372C17.0033 1.47604 14.3534 0.108398 11.4316 0.108398C7.17103 0.108398 3.47614 2.99757 1.61816 7.23041Z" fill="#FF3D00"/>
<path d="M11.4326 26.7556C14.2977 26.7556 16.9011 25.4386 18.8695 23.2968L15.4364 19.8074C14.3227 20.8207 12.9384 21.4262 11.4326 21.4262C8.54747 21.4262 6.09772 19.2165 5.17483 16.1328L1.55762 19.4803C3.3934 23.7951 7.12154 26.7556 11.4326 26.7556Z" fill="#4CAF50"/>
<path d="M22.3083 10.8219H21.4148V10.7666H11.4316V16.096H17.7005C17.2612 17.5862 16.4631 18.8712 15.4338 19.8072C15.4343 19.8065 15.4349 19.8065 15.4354 19.8059L18.8685 23.2952C18.6256 23.5604 22.524 20.093 22.524 13.4313C22.524 12.5379 22.4475 11.6659 22.3083 10.8219Z" fill="#1976D2"/>
</svg>
