<svg width="20" height="20" viewBox="0 0 20 20" fill="none" xmlns="http://www.w3.org/2000/svg">
<path d="M11.5441 8.45645C10.7249 7.63768 9.61421 7.17773 8.45605 7.17773C7.2979 7.17773 6.18716 7.63768 5.36805 8.45645L2.27905 11.5444C1.45993 12.3636 0.999756 13.4745 0.999756 14.6329C0.999756 15.7914 1.45993 16.9023 2.27905 17.7215C3.09818 18.5406 4.20914 19.0007 5.36755 19.0007C6.52597 19.0007 7.63693 18.5406 8.45605 17.7215L10.0001 16.1775" stroke="#7F7F7F" stroke-width="2" stroke-linecap="round" stroke-linejoin="round"/>
<path d="M8.45605 11.5443C9.27516 12.3631 10.3859 12.823 11.5441 12.823C12.7022 12.823 13.8129 12.3631 14.6321 11.5443L17.7211 8.4563C18.5402 7.63718 19.0004 6.52621 19.0004 5.3678C19.0004 4.20939 18.5402 3.09842 17.7211 2.2793C16.9019 1.46018 15.791 1 14.6326 1C13.4741 1 12.3632 1.46018 11.5441 2.2793L10.0001 3.8233" stroke="#7F7F7F" stroke-width="2" stroke-linecap="round" stroke-linejoin="round"/>
</svg>
