<svg width="46" height="77" viewBox="0 0 46 77" fill="none" xmlns="http://www.w3.org/2000/svg">
<path d="M33.9413 41.1447C34.4192 40.0998 35.7435 39.1319 36.8856 39.0023C38.0277 38.8727 39.0686 37.8278 39.1982 36.6857C39.3359 35.5517 40.2998 34.2233 41.3406 33.7413C41.865 33.4745 42.2917 33.0489 42.5601 32.5253C42.8284 32.0017 42.9247 31.4068 42.8351 30.8253C42.6002 29.6994 43.1105 28.1402 43.9529 27.3666C44.3706 26.9498 44.6455 26.4112 44.7379 25.8283C44.8303 25.2454 44.7356 24.6482 44.4672 24.1226C44.1895 23.5573 44.0451 22.9359 44.0451 22.3061C44.0451 21.6764 44.1895 21.055 44.4672 20.4897C44.7362 19.9642 44.8313 19.3669 44.7389 18.7838C44.6464 18.2008 44.3712 17.6622 43.9529 17.2457C43.1105 16.464 42.6042 14.9088 42.8351 13.787C42.9258 13.2043 42.8302 12.6078 42.5618 12.0827C42.2934 11.5576 41.8661 11.1306 41.3406 10.8629C40.7842 10.566 40.3023 10.1468 39.9312 9.6368C39.5601 9.12682 39.3095 8.53932 39.1982 7.91852C39.1058 7.33802 38.8325 6.80152 38.4173 6.38552C38.002 5.96952 37.466 5.69528 36.8856 5.60192C36.2646 5.49277 35.6766 5.24345 35.1664 4.8729C34.6562 4.50235 34.2372 4.02034 33.9413 3.46352C33.6741 2.93826 33.2468 2.51157 32.7212 2.24511C32.1955 1.97865 31.5988 1.88624 31.0172 1.98122C30.393 2.0687 29.7571 2.01277 29.1578 1.81768C28.5585 1.62259 28.0115 1.29346 27.5585 0.855316C26.7768 0.00481582 25.3188 -0.221984 24.3185 0.340966C23.3181 0.903916 21.6779 0.903916 20.6816 0.340966C20.1575 0.0684721 19.5601 -0.0293796 18.9765 0.0616953C18.3929 0.15277 17.8536 0.428003 17.4375 0.847216C16.9848 1.28587 16.4379 1.61532 15.8385 1.81045C15.2391 2.00557 14.603 2.06121 13.9788 1.97312C13.398 1.87966 12.8024 1.97329 12.2783 2.24047C11.7541 2.50764 11.3285 2.93453 11.0628 3.45947C10.5809 4.49627 9.25652 5.46422 8.11442 5.59382C7.53303 5.68723 6.996 5.96191 6.57998 6.37865C6.16396 6.7954 5.89022 7.33291 5.79782 7.91447C5.68796 8.53527 5.43786 9.12282 5.06659 9.63235C4.69532 10.1419 4.21266 10.56 3.65537 10.8548C3.13179 11.1239 2.70657 11.5515 2.44039 12.0766C2.1742 12.6017 2.08065 13.1975 2.17307 13.7789C2.39582 14.9007 1.88957 16.46 1.04717 17.2376C0.204774 18.0152 -0.0301258 19.4732 0.532824 20.4816C1.09577 21.4779 1.09577 23.1182 0.532824 24.1145C0.26416 24.6407 0.169214 25.2386 0.261629 25.8222C0.354044 26.4058 0.629062 26.9451 1.04717 27.3626C1.89362 28.1321 2.39582 29.6913 2.17307 30.8213C2.08056 31.4016 2.17416 31.9963 2.44044 32.5201C2.70672 33.0439 3.13203 33.47 3.65537 33.7373C4.70027 34.2192 5.66012 35.5476 5.79377 36.6816C5.93147 37.8237 6.96827 38.8686 8.11037 38.9982C9.25247 39.1278 10.5768 40.0998 11.0588 41.1407C11.3265 41.6636 11.7527 42.0885 12.2764 42.3548C12.8001 42.621 13.3945 42.7148 13.9748 42.623C15.1007 42.4002 16.6599 42.9024 17.4335 43.7489C17.8507 44.1661 18.3892 44.4406 18.972 44.533C19.5547 44.6254 20.1517 44.5309 20.6775 44.2632C21.6738 43.7003 23.3141 43.7003 24.3144 44.2632C25.3148 44.8262 26.7728 44.5913 27.5544 43.7489C28.3361 42.8984 29.8872 42.4002 31.0131 42.623C31.5947 42.7166 32.191 42.6241 32.7169 42.3587C33.2428 42.0932 33.6713 41.6683 33.9413 41.1447ZM22.5 36.066C18.848 36.066 15.3455 34.6153 12.7632 32.0329C10.1808 29.4505 8.73002 25.948 8.73002 22.296C8.73002 18.644 10.1808 15.1415 12.7632 12.5592C15.3455 9.97678 18.848 8.52602 22.5 8.52602C26.1521 8.52602 29.6545 9.97678 32.2369 12.5592C34.8193 15.1415 36.27 18.644 36.27 22.296C36.27 25.948 34.8193 29.4505 32.2369 32.0329C29.6545 34.6153 26.1521 36.066 22.5 36.066ZM6.19877 44.2065L1.16462 72.755L13.833 70.8758L25.0961 76.9751L30.11 48.54C26.0615 49.7238 21.7931 49.9484 17.6428 49.1963C13.4924 48.4441 9.57429 46.7357 6.19877 44.2065ZM38.5421 44.4009C37.2773 45.3202 35.9358 46.1291 34.5326 46.8188L31.5032 63.9746L45.1476 56.5712L38.5421 44.4009Z" fill="#FCC7B7"/>
</svg>
