<svg width="21" height="21" viewBox="0 0 21 21" fill="none" xmlns="http://www.w3.org/2000/svg">
<path d="M12 0.399903C13.8299 0.39903 15.6049 1.02557 17.0288 2.17503C18.4527 3.32449 19.4395 4.92738 19.8246 6.71637C20.2097 8.50536 19.9699 10.3723 19.145 12.0058C18.3202 13.6394 16.9602 14.9407 15.292 15.6929C14.7587 16.8718 13.9475 17.9038 12.9278 18.7003C11.9082 19.4969 10.7105 20.0342 9.4376 20.2662C8.16467 20.4983 6.85446 20.4181 5.61933 20.0326C4.3842 19.6471 3.261 18.9677 2.34608 18.0528C1.43115 17.1379 0.751797 16.0147 0.366279 14.7795C-0.0192388 13.5444 -0.0994159 12.2342 0.132624 10.9613C0.364663 9.68834 0.901995 8.4907 1.69854 7.47104C2.49508 6.45138 3.52705 5.64015 4.70596 5.1069C5.34011 3.70379 6.36555 2.5134 7.65931 1.67851C8.95307 0.843616 10.4602 0.399665 12 0.399903ZM7.99996 6.3999C7.21203 6.3999 6.43182 6.5551 5.70386 6.85663C4.97591 7.15815 4.31447 7.60011 3.75732 8.15726C3.20017 8.71441 2.75822 9.37585 2.45669 10.1038C2.15516 10.8318 1.99996 11.612 1.99996 12.3999C1.99996 13.1878 2.15516 13.9681 2.45669 14.696C2.75822 15.424 3.20017 16.0854 3.75732 16.6425C4.31447 17.1997 4.97591 17.6417 5.70386 17.9432C6.43182 18.2447 7.21203 18.3999 7.99996 18.3999C9.59126 18.3999 11.1174 17.7678 12.2426 16.6425C13.3678 15.5173 14 13.9912 14 12.3999C14 10.8086 13.3678 9.28248 12.2426 8.15726C11.1174 7.03204 9.59126 6.3999 7.99996 6.3999ZM8.99996 7.3999V8.3999H11V10.3999H6.99996C6.87502 10.3997 6.75451 10.4462 6.66218 10.5304C6.56985 10.6146 6.51238 10.7303 6.50109 10.8547C6.4898 10.9792 6.52551 11.1033 6.60118 11.2027C6.67686 11.3022 6.78702 11.3696 6.90996 11.3919L6.99996 11.3999H8.99996C9.663 11.3999 10.2989 11.6633 10.7677 12.1321C11.2366 12.601 11.5 13.2369 11.5 13.8999C11.5 14.5629 11.2366 15.1988 10.7677 15.6677C10.2989 16.1365 9.663 16.3999 8.99996 16.3999V17.3999H6.99996V16.3999H4.99996V14.3999H8.99996C9.12491 14.4001 9.24541 14.3536 9.33775 14.2694C9.43008 14.1852 9.48755 14.0695 9.49884 13.9451C9.51013 13.8206 9.47442 13.6965 9.39874 13.5971C9.32307 13.4976 9.21291 13.4302 9.08996 13.4079L8.99996 13.3999H6.99996C6.33692 13.3999 5.70104 13.1365 5.2322 12.6677C4.76336 12.1988 4.49996 11.5629 4.49996 10.8999C4.49996 10.2369 4.76336 9.60098 5.2322 9.13214C5.70104 8.6633 6.33692 8.3999 6.99996 8.3999V7.3999H8.99996ZM12 2.3999C11.1526 2.39891 10.3148 2.57784 9.54179 2.92486C8.76879 3.27188 8.07829 3.77908 7.51596 4.4129C8.64623 4.34429 9.77818 4.5164 10.837 4.91785C11.8958 5.3193 12.8573 5.94095 13.6579 6.74168C14.4586 7.54242 15.0801 8.504 15.4814 9.56284C15.8827 10.6217 16.0547 11.7536 15.986 12.8839C16.8952 12.0755 17.5372 11.0099 17.8268 9.82821C18.1164 8.64658 18.04 7.40482 17.6076 6.26762C17.1752 5.13043 16.4074 4.15154 15.4059 3.46079C14.4044 2.77003 13.2166 2.40004 12 2.3999Z" fill="#A1A0BD"/>
</svg>
