<svg width="22" height="22" viewBox="0 0 22 22" fill="none" xmlns="http://www.w3.org/2000/svg">
<path d="M0.5 2.5498C0.5 1.95307 0.737053 1.38077 1.15901 0.958815C1.58097 0.536858 2.15326 0.299805 2.75 0.299805H7.25C7.84674 0.299805 8.41903 0.536858 8.84099 0.958815C9.26295 1.38077 9.5 1.95307 9.5 2.5498V7.0498C9.5 7.64654 9.26295 8.21884 8.84099 8.64079C8.41903 9.06275 7.84674 9.2998 7.25 9.2998H2.75C2.15326 9.2998 1.58097 9.06275 1.15901 8.64079C0.737053 8.21884 0.5 7.64654 0.5 7.0498V2.5498ZM12.5 2.5498C12.5 1.95307 12.7371 1.38077 13.159 0.958815C13.581 0.536858 14.1533 0.299805 14.75 0.299805H19.25C19.8467 0.299805 20.419 0.536858 20.841 0.958815C21.2629 1.38077 21.5 1.95307 21.5 2.5498V7.0498C21.5 7.64654 21.2629 8.21884 20.841 8.64079C20.419 9.06275 19.8467 9.2998 19.25 9.2998H14.75C14.1533 9.2998 13.581 9.06275 13.159 8.64079C12.7371 8.21884 12.5 7.64654 12.5 7.0498V2.5498ZM0.5 14.5498C0.5 13.9531 0.737053 13.3808 1.15901 12.9588C1.58097 12.5369 2.15326 12.2998 2.75 12.2998H7.25C7.84674 12.2998 8.41903 12.5369 8.84099 12.9588C9.26295 13.3808 9.5 13.9531 9.5 14.5498V19.0498C9.5 19.6465 9.26295 20.2188 8.84099 20.6408C8.41903 21.0628 7.84674 21.2998 7.25 21.2998H2.75C2.15326 21.2998 1.58097 21.0628 1.15901 20.6408C0.737053 20.2188 0.5 19.6465 0.5 19.0498V14.5498ZM12.5 14.5498C12.5 13.9531 12.7371 13.3808 13.159 12.9588C13.581 12.5369 14.1533 12.2998 14.75 12.2998H19.25C19.8467 12.2998 20.419 12.5369 20.841 12.9588C21.2629 13.3808 21.5 13.9531 21.5 14.5498V19.0498C21.5 19.6465 21.2629 20.2188 20.841 20.6408C20.419 21.0628 19.8467 21.2998 19.25 21.2998H14.75C14.1533 21.2998 13.581 21.0628 13.159 20.6408C12.7371 20.2188 12.5 19.6465 12.5 19.0498V14.5498Z" fill="#A1A0BD"/>
</svg>
