<svg width="16" height="17" viewBox="0 0 16 17" fill="none" xmlns="http://www.w3.org/2000/svg">
<path d="M0 8.7998C0 6.67807 0.842855 4.64324 2.34315 3.14295C3.84344 1.64266 5.87827 0.799805 8 0.799805C10.1217 0.799805 12.1566 1.64266 13.6569 3.14295C15.1571 4.64324 16 6.67807 16 8.7998C16 10.9215 15.1571 12.9564 13.6569 14.4567C12.1566 15.957 10.1217 16.7998 8 16.7998C5.87827 16.7998 3.84344 15.957 2.34315 14.4567C0.842855 12.9564 0 10.9215 0 8.7998ZM7.5 1.8768C6.83 2.0808 6.165 2.6968 5.613 3.7318C5.43113 4.0759 5.27471 4.43286 5.145 4.7998H7.5V1.8768ZM4.09 4.7998C4.25667 4.26862 4.47087 3.75354 4.73 3.2608C4.90291 2.93386 5.10259 2.62179 5.327 2.3278C4.088 2.84163 3.02201 3.69943 2.255 4.7998H4.09ZM3.508 8.2998C3.538 7.4228 3.646 6.5818 3.82 5.7998H1.674C1.30112 6.58486 1.07861 7.43282 1.018 8.2998H3.508ZM4.847 5.7998C4.65032 6.61961 4.53707 7.45721 4.509 8.2998H7.5V5.7998H4.847ZM8.5 5.7998V8.2998H11.49C11.4623 7.45724 11.3494 6.61964 11.153 5.7998H8.5ZM4.51 9.2998C4.53774 10.1424 4.65065 10.98 4.847 11.7998H7.5V9.2998H4.51ZM8.5 9.2998V11.7998H11.153C11.34 11.0348 11.459 10.1918 11.491 9.2998H8.5ZM5.145 12.7998C5.283 13.1858 5.44 13.5438 5.613 13.8678C6.165 14.9028 6.831 15.5178 7.5 15.7228V12.7998H5.145ZM5.327 15.2718C5.10257 14.9778 4.90289 14.6658 4.73 14.3388C4.47088 13.8461 4.25668 13.331 4.09 12.7998H2.255C3.02196 13.9002 4.08797 14.758 5.327 15.2718ZM3.82 11.7998C3.63916 10.9779 3.53472 10.141 3.508 9.2998H1.018C1.08 10.1898 1.309 11.0328 1.674 11.7998H3.82ZM10.673 15.2718C11.912 14.758 12.978 13.9002 13.745 12.7998H11.91C11.7433 13.331 11.5291 13.8461 11.27 14.3388C11.0971 14.6658 10.8975 14.9778 10.673 15.2718ZM8.5 12.7998V15.7228C9.17 15.5188 9.835 14.9028 10.387 13.8678C10.56 13.5438 10.717 13.1858 10.855 12.7998H8.5ZM12.18 11.7998H14.326C14.691 11.0328 14.92 10.1898 14.982 9.2998H12.492C12.4653 10.141 12.3608 10.9779 12.18 11.7998ZM14.982 8.2998C14.9214 7.43282 14.6989 6.58486 14.326 5.7998H12.18C12.354 6.5818 12.462 7.4228 12.492 8.2998H14.982ZM11.27 3.2608C11.517 3.7248 11.732 4.2408 11.91 4.7998H13.745C12.978 3.69939 11.912 2.84158 10.673 2.3278C10.891 2.6118 11.091 2.9258 11.27 3.2608ZM10.855 4.7998C10.7253 4.43285 10.5689 4.07589 10.387 3.7318C9.835 2.6968 9.17 2.0818 8.5 1.8768V4.7998H10.855Z" fill="#A1A0BD"/>
</svg>
