<svg width="20" height="20" viewBox="0 0 20 20" fill="none" xmlns="http://www.w3.org/2000/svg">
<path d="M19.6732 17.5531C19.0303 16.98 18.4675 16.323 17.9999 15.5998C17.4894 14.6015 17.1834 13.5113 17.0999 12.3931V9.09977C17.1043 7.34351 16.4672 5.64609 15.3084 4.32642C14.1495 3.00675 12.5486 2.15568 10.8065 1.93311V1.07311C10.8065 0.837063 10.7128 0.610688 10.5459 0.443781C10.379 0.276873 10.1526 0.183105 9.91654 0.183105C9.68049 0.183105 9.45412 0.276873 9.28721 0.443781C9.12031 0.610688 9.02654 0.837063 9.02654 1.07311V1.94644C7.30004 2.18506 5.71852 3.04128 4.57489 4.35651C3.43126 5.67174 2.80302 7.35687 2.80654 9.09977V12.3931C2.72304 13.5113 2.41705 14.6015 1.90654 15.5998C1.44712 16.3213 0.893333 16.9783 0.25987 17.5531C0.188757 17.6156 0.131764 17.6925 0.0926814 17.7787C0.0535988 17.8649 0.033323 17.9585 0.0332031 18.0531V18.9598C0.0332031 19.1366 0.103441 19.3062 0.228465 19.4312C0.353489 19.5562 0.523059 19.6264 0.69987 19.6264H19.2332C19.41 19.6264 19.5796 19.5562 19.7046 19.4312C19.8296 19.3062 19.8999 19.1366 19.8999 18.9598V18.0531C19.8997 17.9585 19.8795 17.8649 19.8404 17.7787C19.8013 17.6925 19.7443 17.6156 19.6732 17.5531ZM1.41987 18.2931C2.04014 17.6939 2.58627 17.0224 3.04654 16.2931C3.68961 15.0874 4.06482 13.7571 4.14654 12.3931V9.09977C4.1201 8.31846 4.25115 7.53982 4.5319 6.81022C4.81265 6.08061 5.23734 5.41496 5.7807 4.85291C6.32406 4.29085 6.97496 3.84388 7.69466 3.53862C8.41435 3.23336 9.18811 3.07604 9.96987 3.07604C10.7516 3.07604 11.5254 3.23336 12.2451 3.53862C12.9648 3.84388 13.6157 4.29085 14.159 4.85291C14.7024 5.41496 15.1271 6.08061 15.4078 6.81022C15.6886 7.53982 15.8196 8.31846 15.7932 9.09977V12.3931C15.8749 13.7571 16.2501 15.0874 16.8932 16.2931C17.3535 17.0224 17.8996 17.6939 18.5199 18.2931H1.41987Z" fill="black"/>
</svg>
