<svg width="18" height="20" viewBox="0 0 18 20" fill="none" xmlns="http://www.w3.org/2000/svg">
<path d="M17.1212 16.0966C16.679 15.0493 16.0374 14.0981 15.2321 13.2958C14.4292 12.4912 13.4781 11.8497 12.4313 11.4067C12.4219 11.4021 12.4126 11.3997 12.4032 11.395C13.8633 10.3403 14.8126 8.62236 14.8126 6.68408C14.8126 3.47314 12.211 0.871582 9.00006 0.871582C5.78912 0.871582 3.18756 3.47314 3.18756 6.68408C3.18756 8.62236 4.13678 10.3403 5.59693 11.3974C5.58756 11.4021 5.57818 11.4044 5.56881 11.4091C4.51881 11.852 3.57662 12.4872 2.76803 13.2981C1.96344 14.101 1.32194 15.0521 0.878965 16.0989C0.443782 17.1237 0.209079 18.2225 0.187559 19.3356C0.186933 19.3607 0.191321 19.3855 0.200463 19.4088C0.209605 19.4321 0.223317 19.4534 0.240791 19.4713C0.258264 19.4892 0.279146 19.5034 0.302206 19.5131C0.325265 19.5228 0.350036 19.5278 0.375059 19.5278H1.78131C1.88443 19.5278 1.96646 19.4458 1.96881 19.345C2.01568 17.5356 2.74225 15.8411 4.02662 14.5567C5.35553 13.2278 7.12037 12.4966 9.00006 12.4966C10.8797 12.4966 12.6446 13.2278 13.9735 14.5567C15.2579 15.8411 15.9844 17.5356 16.0313 19.345C16.0337 19.4481 16.1157 19.5278 16.2188 19.5278H17.6251C17.6501 19.5278 17.6749 19.5228 17.6979 19.5131C17.721 19.5034 17.7419 19.4892 17.7593 19.4713C17.7768 19.4534 17.7905 19.4321 17.7997 19.4088C17.8088 19.3855 17.8132 19.3607 17.8126 19.3356C17.7891 18.2153 17.5571 17.1255 17.1212 16.0966ZM9.00006 10.7153C7.92428 10.7153 6.91178 10.2958 6.15006 9.53408C5.38834 8.77236 4.96881 7.75986 4.96881 6.68408C4.96881 5.6083 5.38834 4.5958 6.15006 3.83408C6.91178 3.07236 7.92428 2.65283 9.00006 2.65283C10.0758 2.65283 11.0883 3.07236 11.8501 3.83408C12.6118 4.5958 13.0313 5.6083 13.0313 6.68408C13.0313 7.75986 12.6118 8.77236 11.8501 9.53408C11.0883 10.2958 10.0758 10.7153 9.00006 10.7153Z" fill="#A1A0BD"/>
</svg>
