<svg width="20" height="21" viewBox="0 0 20 21" fill="none" xmlns="http://www.w3.org/2000/svg">
<path d="M12.2222 2.14111C12.2529 2.10231 12.291 2.06996 12.3342 2.04593C12.3774 2.02189 12.425 2.00665 12.4741 2.00107C12.5233 1.9955 12.573 1.9997 12.6206 2.01343C12.6681 2.02717 12.7124 2.05017 12.751 2.08111L13.561 2.73061L10.5992 6.50011H12.5072L14.7333 3.66811L16.6112 5.17261C16.6506 5.20412 16.6832 5.24324 16.7071 5.28763C16.731 5.33202 16.7457 5.38077 16.7503 5.43097C16.7549 5.48116 16.7494 5.53178 16.734 5.57978C16.7186 5.62779 16.6937 5.6722 16.6608 5.71036L15.9797 6.50011H17.9403C18.1985 6.10993 18.3015 5.6373 18.229 5.17505C18.1566 4.71281 17.9139 4.29435 17.5487 4.00186L13.6885 0.91036C13.4957 0.755964 13.2742 0.641195 13.0369 0.57265C12.7995 0.504104 12.551 0.483133 12.3055 0.510941C12.0601 0.538749 11.8225 0.614788 11.6066 0.734688C11.3906 0.854589 11.2004 1.01599 11.047 1.20961L6.85675 6.50011H8.77L12.2222 2.14111ZM13.75 13.2501C13.5511 13.2501 13.3603 13.3291 13.2197 13.4698C13.079 13.6104 13 13.8012 13 14.0001C13 14.199 13.079 14.3898 13.2197 14.5304C13.3603 14.6711 13.5511 14.7501 13.75 14.7501H16C16.1989 14.7501 16.3897 14.6711 16.5303 14.5304C16.671 14.3898 16.75 14.199 16.75 14.0001C16.75 13.8012 16.671 13.6104 16.5303 13.4698C16.3897 13.3291 16.1989 13.2501 16 13.2501H13.75ZM2.5 4.25011C1.90326 4.25011 1.33097 4.48716 0.90901 4.90912C0.487053 5.33108 0.25 5.90337 0.25 6.50011V17.3751C0.25 18.2702 0.605579 19.1287 1.23851 19.7616C1.87145 20.3945 2.72989 20.7501 3.625 20.7501H16.375C17.2701 20.7501 18.1285 20.3945 18.7615 19.7616C19.3944 19.1287 19.75 18.2702 19.75 17.3751V10.6251C19.75 9.73001 19.3944 8.87156 18.7615 8.23863C18.1285 7.60569 17.2701 7.25011 16.375 7.25011H2.5C2.30109 7.25011 2.11032 7.17109 1.96967 7.03044C1.82902 6.88979 1.75 6.69902 1.75 6.50011C1.75 6.3012 1.82902 6.11043 1.96967 5.96978C2.11032 5.82913 2.30109 5.75011 2.5 5.75011H5.935L7.132 4.25011H2.5ZM1.75 17.3751V8.62261C1.98475 8.70511 2.2375 8.75011 2.5 8.75011H16.375C16.8723 8.75011 17.3492 8.94765 17.7008 9.29929C18.0525 9.65092 18.25 10.1278 18.25 10.6251V17.3751C18.25 17.8724 18.0525 18.3493 17.7008 18.7009C17.3492 19.0526 16.8723 19.2501 16.375 19.2501H3.625C3.12772 19.2501 2.65081 19.0526 2.29917 18.7009C1.94754 18.3493 1.75 17.8724 1.75 17.3751Z" fill="#A1A0BD"/>
</svg>
